<?xml version="1.0" standalone="no"?>
<!DOCTYPE svg PUBLIC "-//W3C//DTD SVG 20010904//EN"
 "http://www.w3.org/TR/2001/REC-SVG-20010904/DTD/svg10.dtd">
<svg version="1.0" xmlns="http://www.w3.org/2000/svg"
 width="1412.000000pt" height="398.000000pt" viewBox="0 0 1412.000000 398.000000"
 preserveAspectRatio="xMidYMid meet">
<metadata>
Created by potrace 1.16, written by Peter Selinger 2001-2019
</metadata>
<g transform="translate(0.000000,398.000000) scale(0.100000,-0.100000)"
fill="#FC0" stroke="none">
<path d="M540 3969 c-195 -10 -290 -59 -357 -186 -74 -138 -90 -270 -103 -798
-12 -501 -13 -519 -39 -576 -19 -42 -22 -77 -31 -340 -11 -338 -12 -978 -1
-1250 7 -168 10 -190 32 -235 33 -68 94 -97 256 -124 91 -15 141 -30 199 -57
69 -33 90 -38 213 -49 345 -32 887 -52 1518 -56 333 -3 364 -2 380 14 15 16
17 42 18 230 1 202 2 217 29 303 55 182 140 301 249 354 104 50 205 66 427 66
270 0 390 -29 484 -115 60 -56 142 -183 174 -272 24 -67 26 -87 29 -248 2
-199 3 -200 84 -200 73 0 79 14 72 169 -8 196 27 319 132 467 60 84 112 126
187 151 119 41 175 48 383 47 298 -1 404 -32 523 -150 126 -126 172 -293 172
-625 0 -154 0 -157 23 -162 40 -10 3982 -18 4320 -9 238 6 330 11 340 21 9 9
12 71 14 229 1 204 3 222 27 297 39 120 133 254 222 316 62 42 137 66 256 80
123 14 373 6 470 -15 182 -40 315 -166 385 -368 22 -62 26 -94 30 -223 2 -82
6 -159 8 -171 11 -49 -2 -49 930 -52 479 -2 894 0 923 3 70 9 108 43 160 143
146 282 147 619 1 1330 -58 282 -197 844 -289 1166 -48 167 -60 220 -50 226
16 10 114 3 214 -16 173 -33 278 -100 316 -201 16 -42 23 -96 31 -219 5 -90
15 -181 22 -201 11 -36 14 -38 61 -41 65 -4 101 12 122 56 14 31 16 55 10 162
-13 255 -57 359 -199 466 -126 94 -298 162 -522 204 -171 32 -209 45 -238 83
-14 19 -65 56 -114 84 -229 131 -265 141 -645 172 -845 70 -826 70 -5848 62
l-2565 -3 -80 27 -80 28 -400 3 c-752 7 -2760 9 -2885 3z m1330 -399 c19 -19
20 -33 20 -525 0 -492 -1 -506 -20 -525 -20 -20 -33 -20 -752 -20 -667 0 -733
1 -750 17 -17 15 -18 45 -18 526 0 461 2 512 17 529 15 17 52 18 750 18 720 0
733 0 753 -20z m2070 0 c19 -19 20 -33 20 -525 0 -492 -1 -506 -20 -525 -20
-20 -33 -20 -940 -20 -907 0 -920 0 -940 20 -19 19 -20 33 -20 525 0 492 1
506 20 525 20 20 33 20 940 20 907 0 920 0 940 -20z m2120 0 c19 -19 20 -33
20 -525 0 -492 -1 -506 -20 -525 -20 -20 -33 -20 -940 -20 -907 0 -920 0 -940
20 -19 19 -20 33 -20 525 0 492 1 506 20 525 20 20 33 20 940 20 907 0 920 0
940 -20z m2096 -1 c18 -20 19 -46 22 -518 3 -492 2 -498 -18 -524 l-21 -27
-923 0 -923 0 -19 21 c-18 20 -19 43 -19 524 0 481 1 504 19 524 l19 21 922 0
922 0 19 -21z m2082 5 l22 -15 0 -514 0 -514 -22 -15 c-20 -14 -126 -16 -940
-16 l-917 0 -21 22 c-20 21 -20 32 -20 523 0 491 0 502 20 523 l21 22 917 0
c814 0 920 -2 940 -16z m2326 10 c9 -4 21 -15 27 -26 8 -16 47 -1094 49 -1362
l0 -39 -47 6 c-70 8 -216 57 -493 164 -469 183 -407 173 -1092 173 -515 0
-529 1 -548 20 -19 19 -20 33 -20 525 0 492 1 506 20 525 20 20 33 20 1054 20
569 0 1042 -3 1050 -6z m726 -456 c23 -90 45 -171 47 -180 5 -17 -7 -18 -163
-18 -93 0 -220 3 -281 7 l-113 6 0 174 0 173 233 0 234 0 43 -162z m-13 -384
c18 -3 39 -15 48 -27 23 -32 110 -304 162 -507 34 -133 46 -201 50 -282 l6
-107 -64 15 c-83 19 -344 108 -534 181 l-150 58 -6 145 c-9 197 -10 470 -3
498 4 14 18 25 38 31 30 9 388 5 453 -5z m-667 -1054 c0 -20 -7 -20 -6155 -20
-6148 0 -6155 0 -6155 20 0 20 7 20 6155 20 6148 0 6155 0 6155 -20z"/>
<path d="M3180 1134 c-213 -56 -377 -235 -416 -454 -34 -191 22 -369 160 -506
115 -116 242 -168 406 -168 270 0 504 186 560 445 20 90 8 249 -24 333 -66
173 -213 304 -392 351 -73 19 -221 18 -294 -1z m254 -329 c79 -38 135 -118
144 -205 18 -188 -182 -327 -353 -246 -246 116 -156 487 115 473 30 -2 73 -12
94 -22z"/>
<path d="M3243 720 c-129 -78 -88 -283 61 -305 58 -9 130 24 163 74 51 76 20
197 -60 235 -48 22 -124 21 -164 -4z"/>
<path d="M4715 1131 c-94 -27 -164 -70 -246 -151 -124 -123 -178 -265 -166
-439 13 -185 100 -338 250 -438 104 -70 196 -98 322 -98 126 0 218 28 322 98
239 160 321 476 191 739 -65 131 -219 254 -368 293 -75 20 -230 18 -305 -4z
m272 -329 c153 -78 184 -280 61 -402 -47 -47 -102 -70 -173 -70 -97 0 -180 51
-224 139 -70 137 5 302 159 352 40 13 133 3 177 -19z"/>
<path d="M4790 718 c-52 -36 -73 -71 -77 -130 -7 -100 61 -172 162 -172 101 0
169 72 162 172 -6 91 -72 152 -162 152 -38 0 -61 -6 -85 -22z"/>
<path d="M10816 1135 c-148 -41 -300 -165 -364 -297 -103 -212 -73 -457 80
-640 54 -65 168 -139 259 -168 102 -33 254 -34 349 -1 198 68 340 222 386 417
22 95 14 236 -19 326 -64 175 -218 317 -393 362 -75 19 -229 20 -298 1z m260
-333 c92 -47 154 -162 139 -255 -15 -90 -76 -168 -160 -203 -45 -18 -136 -18
-183 1 -42 18 -107 77 -128 116 -70 135 -4 300 142 355 51 19 138 12 190 -14z"/>
<path d="M10880 718 c-73 -50 -96 -122 -65 -204 44 -116 213 -135 286 -32 35
48 38 132 7 178 -54 80 -157 106 -228 58z"/>
</g>
</svg>
